Coordinates
version=1
nRows=14
nColumns=24
inDegrees=yes

Units are S.I. units (second, meters, Newtons, ...)
Angles are in degrees.

endheader
time	pelvis_tilt	pelvis_list	pelvis_rotation	pelvis_tx	pelvis_ty	pelvis_tz	hip_flexion_r	hip_adduction_r	hip_rotation_r	knee_angle_r	ankle_angle_r	subtalar_angle_r	mtp_angle_r	hip_flexion_l	hip_adduction_l	hip_rotation_l	knee_angle_l	ankle_angle_l	subtalar_angle_l	mtp_angle_l	lumbar_extension	lumbar_bending	lumbar_rotation
      5.09500000	     -1.10267892	      8.23833926	     -6.39910465	      0.47170405	      1.02025845	     -0.16103921	      8.01183228	    -13.38315487	     -4.46883107	    -62.67904069	    -13.41641717	     -2.05502534	      0.00000000	     14.95053305	     11.20406908	     -3.41106072	    -13.33042259	      6.31187334	    -10.67343985	      0.00000000	     -9.39631846	    -10.67502926	      3.03582652
      5.10000000	     -1.04492428	      8.31286902	     -6.41270554	      0.47793413	      1.02105198	     -0.16143542	      8.75076033	    -13.41455293	     -4.31348952	    -63.53910700	    -12.30896632	     -2.07495243	      0.00000000	     14.31697989	     11.38621429	     -3.23636510	    -12.94445586	      6.49971346	    -10.71635982	      0.00000000	     -9.43987966	    -10.72904822	      2.83220690
      5.10500000	     -0.99680137	      8.37711116	     -6.43558072	      0.48412490	      1.02183162	     -0.16190690	      9.50254287	    -13.43683081	     -4.16631787	    -64.34199914	    -11.00032009	     -1.97085003	      0.00000000	     13.66631458	     11.57667156	     -2.92317278	    -12.49462671	      6.51957123	    -11.04992593	      0.00000000	     -9.47258718	    -10.75527505	      2.67551443
      5.11000000	     -0.94514244	      8.37213652	     -6.39218236	      0.49029837	      1.02266418	     -0.16240331	     10.19970310	    -13.38173750	     -4.09703461	    -65.05275641	     -9.53776186	     -1.72594576	      0.00000000	     13.01075617	     11.69952704	     -2.61766289	    -12.07656164	      6.61302017	    -11.25503511	      0.00000000	     -9.52475909	    -10.69833595	      2.44704518
      5.11500000	     -0.88054672	      8.38273290	     -6.35725325	      0.49654391	      1.02352446	     -0.16291216	     10.87518872	    -13.34441710	     -4.03535526	    -65.69048970	     -8.01117085	     -1.43248939	      0.00000000	     12.29494158	     11.84860883	     -2.16487921	    -11.57258836	      6.56923113	    -11.63029509	      0.00000000	     -9.56790852	    -10.66112762	      2.22954469
      5.12000000	     -0.81701482	      8.33372348	     -6.28357215	      0.50274764	      1.02440892	     -0.16345166	     11.51884404	    -13.24461382	     -4.03090111	    -66.24649260	     -6.44374592	     -1.06796944	      0.00000000	     11.58281713	     11.93641083	     -1.71847353	    -11.09348709	      6.55950590	    -11.96142438	      0.00000000	     -9.62616366	    -10.54857090	      1.98683252
      5.12500000	     -0.75492423	      8.25637444	     -6.19123023	      0.50894177	      1.02530408	     -0.16400629	     12.14386313	    -13.11538038	     -4.06183808	    -66.72749239	     -4.88897717	     -0.67664928	      0.00000000	     10.86268497	     11.99397970	     -1.24165920	    -10.60678830	      6.52536267	    -12.31303951	      0.00000000	     -9.68403296	    -10.40230570	      1.73558551
      5.13000000	     -0.69174088	      8.15020833	     -6.08191591	      0.51511806	      1.02620691	     -0.16458584	     12.74913239	    -12.95639049	     -4.12607218	    -67.13418460	     -3.39157780	     -0.28806997	      0.00000000	     10.13013378	     12.02109135	     -0.72227653	    -10.10800934	      6.46728748	    -12.69971809	      0.00000000	     -9.74816069	    -10.21888226	      1.47779123
      5.13500000	     -0.64483080	      8.01319453	     -5.94318707	      0.52128578	      1.02710380	     -0.16518398	     13.34463891	    -12.76532119	     -4.23509296	    -67.46384887	     -1.95372277	      0.10074041	      0.00000000	      9.42045689	     12.00893951	     -0.26369683	     -9.62728081	      6.41512595	    -13.02157508	      0.00000000	     -9.79577296	     -9.99620665	      1.21191183
      5.14000000	     -0.58394414	      7.87403945	     -5.80604150	      0.52742981	      1.02797622	     -0.16579209	     13.92478222	    -12.57317920	     -4.35339276	    -67.73707297	     -0.63305508	      0.44305288	      0.00000000	      8.66960577	     11.99268471	      0.34145542	     -9.10352044	      6.32750812	    -13.44613241	      0.00000000	     -9.86378718	     -9.77370170	      0.93689766
      5.14500000	     -0.54665795	      7.70065434	     -5.64201952	      0.53357054	      1.02883983	     -0.16641026	     14.49972122	    -12.34321103	     -4.51208242	    -67.92970205	      0.61341504	      0.77901002	      0.00000000	      7.95508700	     11.92954990	      0.82154695	     -8.60348206	      6.25662982	    -13.76265858	      0.00000000	     -9.90436261	     -9.50626370	      0.65816560
      5.15000000	     -0.50511218	      7.52216896	     -5.46973005	      0.53969129	      1.02967083	     -0.16704222	     15.06187714	    -12.10941898	     -4.68948594	    -68.06277127	      1.75742372	      1.07073589	      0.00000000	      7.21827152	     11.85541448	      1.39200437	     -8.07583189	      6.15849259	    -14.13415934	      0.00000000	     -9.95464886	     -9.23468804	      0.37677313
      5.15500000	     -0.46717870	      7.32793024	     -5.29031007	      0.54580808	      1.03046375	     -0.16768173	     15.61308824	    -11.86076285	     -4.88882690	    -68.13266031	      2.81210740	      1.33706102	      0.00000000	      6.48105760	     11.75672631	      1.95299974	     -7.54097462	      6.06371401	    -14.50073248	      0.00000000	    -10.00134132	     -8.94241104	      0.09102046
      5.16000000	     -0.42470071	      7.12641753	     -5.11255821	      0.55189783	      1.03121362	     -0.16831285	     16.15177447	    -11.60164670	     -5.09827040	    -68.14256946	      3.77851928	      1.55031401	      0.00000000	      5.72874381	     11.64040200	      2.56405937	     -6.98811955	      5.96470539	    -14.88917626	      0.00000000	    -10.05764906	     -8.64464882	     -0.17326322
